<mxfile host="app.diagrams.net" modified="2024-06-02T14:32:34.697Z" agent="Mozilla/5.0 (Android 14; Mobile; rv:125.0) Gecko/125.0 Firefox/125.0" etag="qKllUP6MUYlNAS2s4EsB" version="24.4.13" type="github">
  <diagram name="第 1 页" id="O0HsQHguRhHZylX_n-jg">
    <mxGraphModel dx="1602" dy="5604" grid="0" gridSize="10" guides="1" tooltips="1" connect="1" arrows="1" fold="1" page="0" pageScale="1" pageWidth="827" pageHeight="1169" math="0" shadow="0">
      <root>
        <mxCell id="0" />
        <mxCell id="1" parent="0" />
        <mxCell id="SC_foNXdeorjW9NxKM-1-1" value="" style="shape=stencil(rVfLbhsxDPyavRKSKInSOU3/I0Cc2qhrB47Tx9+X28U6Jg2NW6C3tcwhNXxr4oe37dPrZkrh7Xw6ft382D2ftxN/mlLaHbab0+6sXxM/TvzwcjxtvpyO74fn5ffr0yw5f307fp81/FxwkXKfQSn8Wg5EqJY/J58X+f3ucCUvlIOVZ8oylo9MgQ2gdkptDNAbcbMAphTGAI7UkwGUSpHHgJyoVQPIjWoeAwp7J6mKAEjrjXM2AC7UAQdR0tZC6tQjAAg1ayEVCn0MaIm6AwSKCFCpWbdGdSvg0CMVy6FTAV7taqBYA5QqkBcqVj5QQPdplMTJM5b3HqIIQtA7ZZuoBd+/e76qAOiP4cLv4qAME1stuEqIbT0ZAWq0lBkWpwKiA1QS0C7UqdkGIemVkAUhscWpbhLEQSiUGwsobnV1+xWHiiwU71b1Eqo1BdSbOAhKveJTW9sm5FBILIcOe6RyDrY2cbdQ+eprAdaaENv7BEo4LdxU0FxHIVD/WXltmEh/J7YRyBRwXosNgFDH+rut/Zio3ClNWwdR7jFwjJUyGiEKSG6EFFw4OvQcoK1T6D8BEiXLgSu8UhNKNo24w57dmNhayJEimMzSKNrA5QwjrZPZxSH3dfSOZr+4daTAjqfbhdjUqAmSzuw56EoVwJVY42CrWXT2gvaiqSYW0PKqYrTluf2lB+gl8Zy1o6ECjdRcvQU8/aOfOx8lO5APzcszSNXgozy3NEA4UHbydS2OgXx0DtWJAGot+Cmo61gGeX2zW7S2Dt6/06/7IVqBwzqPLvIMG6T6x5ZZi+tIGfnfpXSH+uO6u17kG9x0/vVddF9ePz4eYS+7/X55w13/7x9terQ8+PjxNw==);lineShape=1;strokeColor=default;" vertex="1" parent="1">
          <mxGeometry x="208.5787294350963" y="140.77919258640168" width="84.46676602124819" height="12.632735773203535" as="geometry" />
        </mxCell>
        <mxCell id="SC_foNXdeorjW9NxKM-1-2" value="" style="shape=stencil(rZfbbtswDIafxreEROp43XXvUaDpEixrijQ7vf3ouXItKvmLAbtznI8WxcMvapK71/3Dy25i93o5n77ufh4eL/tJPk3Mh+f97ny46NMk95PcPZ3Ouy/n0/fnx+X3y8NMzk/fTj/mL/xa7GqlHGcrdr+XN56K//vi88IfD89bPlIpHZ/IJcA7irn/vqcEFihMzncG7Ci52wapUk2dgTBVsEJMVGtnECLlctsgBKr9nmOmAFySQBL6IGWKwCUNovQr5EiegYEjL51B8TAPPhL3YS2aOLCCpom5M9BUCjAo7XMrL1QqSAOlPm01QV5ajla+kgjiZeATiBBTCZZH/rANqHeOHKgKTzHaBWq+zTuqA49a01FIlo8gQEMJKe+hP2+7W/lCGQRU+WL5t7a4wYvxP7fOvsEXtjxKsG89u+ED2K8KURx41MSU6sADWRHiYb8J8nnwv8KGqXmIP5I5cmL5DL9fhgZjpIqtGrf1CfIlgz9a/6CemQJbvoL9esrmZPqwgf2oEGAB1w66rQLBBrCKqwoH/HGD4haqmB8SjApU/YmWd/+R14QZfyIUFD0STQMwLNBiBaXUFuHr+WWrECVQQYqS7QpZKyKCHUsbZVYDgbOKDIdGSsRgz4Gbhq+zSiKPjuFgjwEddyLImo4yrm8DdTKDvtSYGANfW+av502HJWPgWm9fHzK5ObDuAR7dOmmEXqrxiKm8kQo9q8DJocLs2fAehFR5I40OD9XZSjsWrrnPrT8ODfmllf2GR/GstvNVCoDQzcJfDB8wX6z/CftTrf9oktgI//stiFECdAExfMQb+Ldb1oe8Prxf6Z4Ox+NyI9z+b6+A+mq5Psr9Hw==);lineShape=1;strokeColor=default;" vertex="1" parent="1">
          <mxGeometry x="199.10893926966241" y="103.58953508607726" width="75.30501313975469" height="116.86897193900143" as="geometry" />
        </mxCell>
        <mxCell id="SC_foNXdeorjW9NxKM-1-3" value="" style="shape=stencil(lVfLbhsxDPwaXwmKpF7nNP2PAHEao2kcOOnr78utsbFF2RPktt7lmCLFGY02evP6ePey3Qi/vh3237e/d/dvjxv9shHZPT9uD7s3f9ro7UZvHvaH7bfD/ufz/fH3y90SuTz92P9a/uHPEdc7NV1Qwn+PbxJx+//i6zH+afd8Hq8keYg3KiC+GbEM8Z4wXY+viXIb11NJ+nVArlTrAJBMDazIlLQPAM3rGi8ClKmPJZjBJYkQjxmykNTrgFRIxgy5UwUZksaulkI1A4CQjl2qQga65BlsrKFWMtCllGOGltaqLgM6lXGSfFZQDT5pyiOgUSoA0CmNgJ7IwPCpUi8jwCgzADRiGwGFGtg48/Ee29rbR4ASMnQSsCTzaU0RYCCD9rXEM0BVAKiUcwR01NYcNSMxE6O+CrUypUBFMBWJAKQC0qhOGZCQSY2EWPoK2iSFukZAQoBKKWx1W8X5Wg0pRUBGDPKNlQhQJH2J2gRIQMnU1s/nAJShUJ6KRqR2ypU21YAJoWXqEliSU844ApAaO6BOlGMMkInUigA86YxPK+6STBxtCFAuZOiAD66V5ZOkTqQTITrYCB9XnUhdkeBXalMRaKsdwNOSBHP0kwBbR+cd4H4GiKX7rxYABh2T+yOeTrkK9sG9QOCon6NIyVz5QrxhMSYeCedOQFEFlMZJWqwG2GaOBS9eBsaHSXWzBMkTDx93YwX0x4dynDq3e4zMmOvP2FAz7EDdk48C4zpbQUfNT9xRJN0Uo5MhN+pjDe5JOwC4T09Bhsnsenzj6MUMqnYrUcB8F8HMeXxLIR65nlZXj3OKRzPqFOk1xKNjqvPajlM8o3iJpMFi6vewOv0/ip/sOcMZXXxsi/WC/T2d2qd4QffIHs2ONwytp0e/9s7qyxzjSSUYHoCfvgh/GO8Pp1v3w+7p6XhpP/8eb+n+6njD19t/);lineShape=1;strokeColor=default;" vertex="1" parent="1">
          <mxGeometry x="204.09180449707674" y="-65.40794202161737" width="20.322991903420302" height="159.5358065436542" as="geometry" />
        </mxCell>
        <mxCell id="SC_foNXdeorjW9NxKM-1-4" value="" style="shape=stencil(rVddb9swDPw1fiUo6vu56/5HgaZLsCwp0nRb/31peEos2r5hwN4c52hRvDtSGvzD2/7pdTcIv10v5++7X4fn637wXwaRw2m/uxyu+jT4x8E/vJwvu2+X8/vpefr9+jQix6cf55/jF35PcUzMY5Dwx/SiZpLpzdcJfzycZnihmjt8KTT+3MJnyrHD50IR4J2n2gekQiWChBwF1wXESiFsB3imHLqAUMml7YDAVH0X4GtLcjUgOvKlD3AkdTsgOXK1CxjrDKqUNON+Dy5ScYCG2Kp+47kRs4ov0dKgZQYJlUyhx2uVEV45ygYvfhtfHRUxeAYyraF9boYHHNe0zCeg75dG6B1fAcO1UnSmnhnk43hhTKEEVK0L5B7vKaKCFko9YYE8wieqyeD/dIItAoqxZTPFOl4WNm4VW8drfbz9PhJ0pso2fyTQRGL3K2C/ahgxnm+O2MJzX3+hCASh+NTn7ygBwWn+pc/n1sXW8cU2aiaPDOOIncEz0qdvTXmGR/zG5o9Zg0D5LAaNNiCkT+2gxdQzYAPXvgEJeezH0jcIT4Lx3OcT2ov/gld+2UwM1zrGegBT6glwGXagLHYmaUoJUJakdZxbiTzcQxTivqZBTQBEHcSaMjJFsIImYMZGYmgzSeRMwI349QBusrkdiCpsvC7ZRjFaFY0ObzvF6A0cIOZsUGAvdWKHpQagTavUfE+cyheuwFat9/m2rlY7Xu9+XdcelX4Hs4G7rj0rjHEBQJuSUBYbAAmpF2RRIaBUPVA6SwHKR48z3uLRAUerYfLJ8ID5r/eIv+P14X5peTkcj9OdZ/6/veToq+mC5B8/AQ==);lineShape=1;strokeColor=default;" vertex="1" parent="1">
          <mxGeometry x="235.07615486593818" y="-169.5099792763907" width="2.908463216216853" height="7.887086350109937" as="geometry" />
        </mxCell>
        <mxCell id="SC_foNXdeorjW9NxKM-1-5" value="" style="shape=stencil(lVjLUhwxDPyavaosy88zIf9BFUvYCmGphbz+Pj3ZzDLWME24LYN6Rpa7W7J3dvV8f/O038Xw/HI6ft3/PNy+3O/s0y7Gw+P9/nR4wa+dXe/s6u542n85Hb8/3p7/frqZIqdf344/pjf8OuN6l1omVAy/z0+siIa/Tz6fAQ+HxwWgdUl1ACSVQgC1S84jAE/iNqAgJR0AuYtmAsiSxi+UJtYJoEi0AVALXQNS0j4AmkkgKVWT2EZAk8CqVMXGlHqUUAmgSXaALJkASpI6poS977YNiCo6UkNDoItIkpNPKZGdvrztUqQqnbw/ShtXgCIoWYGqLyp2vhTygeTVkIs03QZYlTSmBHL/e/J2ibIUp4YkygDdczUFSYkA2vzvi6KrNLILBr3FEYAyEPlok+q+ECkvoPexqpGLofkaRaM8Uuh5JBJSTESesc6GcgHwL5h5i+lSyK7BRJ2HvcOjLmHkkVIlgANaXXxkLIJdjfkEqUQ5qUrsLt5I/jlKbi4+EKHlNr9uEU/eX0yaz0fJ+8uKokEys9/onUK5XSefv0omkkF8chKQSPiGfKqPb2S/0KDSqAATIyYxNQOn+Zmwb+9Xn9N9jWf8zOanBJu9e8u0HP+NGjX4XPx6I4vH9qurJ+M/9Kjm4pXr1+WjvA2ob2WB6z3P6b7GJ5J/Dmv+K+Eb2px5fTH+Fxj+Kp5NXPATn4+x6QadO7h41sMwbzVn6GKk/tBjGfkcqf98OB7bOeq3zgLdGmGb85NAR1gYaHENA3MEUfzECNcxOl0CKNfckm3elK0v2JjS1CSZKUbfZNBmM6sqFr0abZhsMNa7yQNG0IhP1JVuMJ4VZrzmG3HmysnqO2Wu84S3aS0jAENsI2VFEd3cPo3JDAAvXM3hrJtNBzh3lMjz6L9FjTZWCacbNk+gH9TV+Smyqfcysi5OaGzRcGDXoaYzIBuJgsTVKZP2nOSPNxBtY1XCkOZG/U41XaKf6rCqQNYAejsuWeZzka6uBzJtJDBiZ5TvHCZQdcdWAKgJrEeRRLnU4so1EqVGWx0nJgDpVm11YwFAJOcPsL9nD0hkDdBXXQEK+0Kdz/YLQCds7d27N3bayE4vLgMWCDZEfviu6T8A+PF6tXV3eHg434wt/++vwvDofI1m138A);lineShape=1;strokeColor=default;" vertex="1" parent="1">
          <mxGeometry x="19.134087055223972" y="-4270.126391488441" width="212.23285464930427" height="1927.8303430443657" as="geometry" />
        </mxCell>
        <mxCell id="SC_foNXdeorjW9NxKM-1-6" value="" style="shape=stencil(fZbdcgIhDIWfZm8zQAg/17Z9j85U606tdqz9e/tmZ0c0uJ47xP0I5JwEBl59bp8/1kNwn6fj4W39M76ctgM/DCGM++36OJ50NPDjwKvN4bh+PR6+9i/z74/n6ctp9H74nlb4nbmSKZeJCu5vngmZ6jzzNAO7cX8FVKEsBuBKrgKg9oAE8gkCbLeUhEoEQKSUDZDLeWYRKIl8MEDRmHwfyBrBG6Amyu4+kDxxMoB3jhwgYu7TVAsVkFcWCs4CTBEoF4RctKeOxHIf8IXYpikHikAIf+MNUW94AGSSaoAoFIE3AlOyeWU+p2E5S9yfQZcQILVuQOwZdJNoS9Ls3wA5u2XZTIHECqeJ9kDpSaauRiNVcAY1QhdBzeLBli5WazpkSsBLV25uRaqWRyFawTQzRRIQYirJzq5atkBqLfouwqUxLBepthWb10vrWZY6UOAeyKCCtDV625mm9gmUC4Wc3VLJMMIE1BsA2FW9JraVlQB7n3c9oMKhCLEvIM1zBPZ25/umNQ1tVEC2G+fFCC8g398O2hNQuQlVu752DBfA+q0ptnqO5JFmeuIuo9DY7KjY71UxdJV4EntifPWorW++R/dC4t7V3DlIB5cHx2bc7eb3yvX//QNFp+bHDT/+Aw==);lineShape=1;strokeColor=default;" vertex="1" parent="1">
          <mxGeometry x="401.4116747552655" y="-4235.288279297134" width="0.029203373575683145" height="0.029157726352264036" as="geometry" />
        </mxCell>
        <mxCell id="SC_foNXdeorjW9NxKM-1-7" value="" style="shape=stencil(fZbdcgIhDIWfZm8zQAg/17Z9j85U606tdqz9e/tmZ0c0uJ47xP0I5JwEBl59bp8/1kNwn6fj4W39M76ctgM/DCGM++36OJ50NPDjwKvN4bh+PR6+9i/z74/n6ctp9H74nlb4nbmSKZeJCu5vngmZ6jzzNAO7cX8FVKEsBuBKrgKg9oAE8gkCbLeUhEoEQKSUDZDLeWYRKIl8MEDRmHwfyBrBG6Amyu4+kDxxMoB3jhwgYu7TVAsVkFcWCs4CTBEoF4RctKeOxHIf8IXYpikHikAIf+MNUW94AGSSaoAoFIE3AlOyeWU+p2E5S9yfQZcQILVuQOwZdJNoS9Ls3wA5u2XZTIHECqeJ9kDpSaauRiNVcAY1QhdBzeLBli5WazpkSsBLV25uRaqWRyFawTQzRRIQYirJzq5atkBqLfouwqUxLBepthWb10vrWZY6UOAeyKCCtDV625mm9gmUC4Wc3VLJMMIE1BsA2FW9JraVlQB7n3c9oMKhCLEvIM1zBPZ25/umNQ1tVEC2G+fFCC8g398O2hNQuQlVu752DBfA+q0ptnqO5JFmeuIuo9DY7KjY71UxdJV4EntifPWorW++R/dC4t7V3DlIB5cHx2bc7eb3yvX//QNFp+bHDT/+Aw==);lineShape=1;strokeColor=default;direction=west;" vertex="1" parent="1">
          <mxGeometry x="401.3866747552655" y="-4235.238279297134" width="0.029203373575683145" height="0.029157726352264036" as="geometry" />
        </mxCell>
        <mxCell id="SC_foNXdeorjW9NxKM-1-8" value="" style="shape=stencil(fZbdcgIhDIWfZm8zQAg/17Z9j85U606tdqz9e/tmZ0c0uJ47xP0I5JwEBl59bp8/1kNwn6fj4W39M76ctgM/DCGM++36OJ50NPDjwKvN4bh+PR6+9i/z74/n6ctp9H74nlb4nbmSKZeJCu5vngmZ6jzzNAO7cX8FVKEsBuBKrgKg9oAE8gkCbLeUhEoEQKSUDZDLeWYRKIl8MEDRmHwfyBrBG6Amyu4+kDxxMoB3jhwgYu7TVAsVkFcWCs4CTBEoF4RctKeOxHIf8IXYpikHikAIf+MNUW94AGSSaoAoFIE3AlOyeWU+p2E5S9yfQZcQILVuQOwZdJNoS9Ls3wA5u2XZTIHECqeJ9kDpSaauRiNVcAY1QhdBzeLBli5WazpkSsBLV25uRaqWRyFawTQzRRIQYirJzq5atkBqLfouwqUxLBepthWb10vrWZY6UOAeyKCCtDV625mm9gmUC4Wc3VLJMMIE1BsA2FW9JraVlQB7n3c9oMKhCLEvIM1zBPZ25/umNQ1tVEC2G+fFCC8g398O2hNQuQlVu752DBfA+q0ptnqO5JFmeuIuo9DY7KjY71UxdJV4EntifPWorW++R/dC4t7V3DlIB5cHx2bc7eb3yvX//QNFp+bHDT/+Aw==);lineShape=1;strokeColor=default;" vertex="1" parent="1">
          <mxGeometry x="401.43667475526547" y="-4235.400779297134" width="0.029203373575683145" height="0.029157726352264036" as="geometry" />
        </mxCell>
        <mxCell id="SC_foNXdeorjW9NxKM-1-9" value="" style="shape=stencil(7ZnZboMwEEW/hldrbLP5OU3/I1JIg0ohInT7+4JQFmz3pm5KQ5DfHHMPDGBnLjOBXOy3q10WCNo3dfWcvefrZhvIh0CIvNxmdd60o0AuA7nYVHX2VFev5br/vVt1ym70Ur11Z/joOaWYCjtK0Odxhvczjz1Q5KUGxAYgMZAYgMBAqgOkPDACwMkD1wNKBwQAOBEj0okQvDk7odyIsymPeOQmSChYNEw27YxMwTXSQ6Y4XiJhin8PJCyRA31yuKJVLpnkA7lkPAbhsHB4ds4kyHzE4mHwxKIEyUWqyQUIhg5Z9yRHebt9M7EmR9miPaqfnWDspN8qRW5yHLshBwbCJgdr5nj0x3JyC+af5Y6x37Mc/NdMTW4sMUf5ny7gScmnvZv8Xp3ibhp38xnZY1w5fu7XZj5oUFzTcKjLoUExHQfwejY/A2M33RJ0HE5ezOb0wHO3+UgQjM2lglt1dsF2n41u139hemQOiLUag2orzuWbe6nszQG4fWVvDoBz8d0s71/oB0QGAJLfrwCzRTFB4MJT8sBdAO3g1Czb5EXR99rOj+vNtXaqb8zJ5Rc=);lineShape=1;strokeColor=default;" vertex="1" parent="1">
          <mxGeometry x="-93.05493413807562" y="-3745.390345355381" width="1285054.7496324284" height="531951.6296394889" as="geometry" />
        </mxCell>
        <mxCell id="SC_foNXdeorjW9NxKM-1-10" value="" style="shape=stencil(lVfZctswDPwavWLAm3xO0//ITJzaU9fOOE6Pvy80KiURlDbNmywvKOzi5OAe3o5Pr4fB8tv9dv1++HV6vh8H92Ww9nQ5Hm6nuzwN7nFwDy/X2+Hb7fp+eZ5+vz6NyPHpx/XneMLvya4Ucn60svxnemMoTC++Tvjz6bLGezK5wTvycR+fMxXT4AOlAvBMxTb4Ul9s4pMhX1r/A4W8bxANcfsBYeDcvkFgytwyNlQABS8UWonGN0AjZ4mVgZBO+wbWU25Jh0QRRM1kSm2Uo8cGjmKrkghtDMgLcqnFR8rgA5FsaPDZUAJR8GTbNMpyAsA74timEZMBMbAUWv+LKIBCQFGdH6vEO/7883bGF6in03zLrPAeX6/xEZxvKQWNzxCv4iv4ghKISsvXMBMzMvC5+wAgLGXcOZQBnjcIR1DFTKELGGp0XP9d4S3g258vnTJA/73GJ9AYTVcAGTZ20T9pvAcFZro+LXjAVxKo88cDvnaDbwDx6gtA9AFzwNXorOLFQM+tArbwfNMVcAB6Wspd/iSoT+j8L7CAua8voKeh2PHF+F5P5A/X8fCffLlGf60nyGfu8lniBev9s3itpwwA2B9Y6eMoYL5q4GE9Te0GMz5QBuc7ym18ZQBbcH7S/qd5hG/7I8epjYDrqrZtEGu/mXcUh7cgWyfcvAVFuCvKkpJbjWTPsqjmpYW0HDzeInzWVSO7okHLZdZzcmyUQKUoWd/2CeMpoAW56EaUYZ7mVCWZOeMLga2L5MyAGBAoSTd2hgpJG1eDjGun38N71ngwl8YxETQeLbql0lvhgZ7j2qD9QSk0riWar0P+l1rmC96DqlnWqgUfgT+rvW0xyJhAaR0yHwmkqtLAxrIstgve44B97ob7IV4eluv0y+l8nm7j6//19VteTVd39/gX);lineShape=1;strokeColor=default;" vertex="1" parent="1">
          <mxGeometry x="-1312.751664262919" y="-5368.172131372201" width="1941.0444488191808" height="3364.239198377311" as="geometry" />
        </mxCell>
        <mxCell id="SC_foNXdeorjW9NxKM-1-11" value="" style="shape=stencil(lVjbUlsxDPyavGosyxf5mdL/YIbQZJoSJkAvf1+dZhxiOdmSt3DYPZaslbw+K7l73Ty8rFcxvL4d9t/Xv7aPb5uVfFnFuH3erA/bN/u1kvuV3D3tD+tvh/378+Px75eHBbn8+rH/ubzh95EnhUQXVgx/jk9YKMq/J1+PhN32+YwQG4U4EhpxBoRIjQdCzFTbdQInUhkIUkkAoVJqAz4zVZCCUBvxJVNRhE91wFelCDLOxOP71eKv1/FKIQ34lohB/ByJx5q1SgURlPKYQbMnqMiV4rRCRltkOajPoYCaJaU6Jq0NFjlX0jwSAgWwq1bUNIZUtBfmsoyYtIw6SlQDIFSqo7ITUwDbqtYKY9ISYKV1WiEGqiDpxj3iT7azlUnGpGtX+2V8Jh2lJCSgF1qhNAYUYG8aPmeHT0B4hld1eNSbpmPx7w9AFIZ308vwDPDWWD5fiLdx6uNhoDnD5+jzLRCv6Yb95GDxTgVLcIE2CoL7C67ha3Z4WLDWZ+cHPiG8+i5myqjANsubwxcsINeSho8Q74a1xYMEUeb9EfT+4scc91F8DS++YfSm9wfKSHAWf3F4GP+0P9YASG+2/74B0My1+srUkEif6gec4XGDicfHm/Qf+oT8ZH8FqM+LDdyA4G4mWETR+TMqCF+7E/g4YpD/syMmuA4T3MKnU/d0SjIx0JwWiu4QsyKAIiv7KW0nvQDV1ckD5gxlat7EycKeIE9XrEhjn5kfQm7FTLH3dJY0ssmtD4YToXTvf9k1zka2wcOV6+RWwn+6s2v/3MiCwqVu7M9sKTo92FfBHBia1lPrLFcDsEXBn97mUjPIN3ndWRXRVYLtcBwXsAteAwvY5c35reX6gq5zuRvQU80UDniR6cIYYQ5G8CdyhCPVCE4VRkAzW1K/OZwI3KfsNYKr20JASSd/x1wIqNly78VzAugdIzhjtySNCGUyIhFeDYzgQ4qUQDMYIU8roJPBCGVaAZmRZQVn7gSO1Zs/b3yCYD8+vqY8bXe748eY8//7ry/26PjlRu7/Ag==);lineShape=1;strokeColor=default;" vertex="1" parent="1">
          <mxGeometry x="-129.86305333665587" y="-4913.248212021257" width="1469.3039345993952" height="3229.1226650073554" as="geometry" />
        </mxCell>
        <mxCell id="SC_foNXdeorjW9NxKM-1-12" value="" style="shape=stencil(rVfJbhsxDP0aXwlJ1EKe0/Q/AsSpjbpx4Dhd/r6cupNa1MxzC/Q2y3vivmjDd6+7h5ftJoXX8+n4eftt/3jebfjDJqX982572p/tacP3G757Op62n07Ht+fHy/vLw4Scnr4cv04nfL/wYqJYJlYKP35/Ia2/Pny84A/75yu8UO7hlaSswwtp60+PJHkdz5Rjh0+Bptc1fKJcOzwHYqB+IenxOZGEdby5p6WOUMykCBQyf/YWV6GILGZK0hGazk5YJGTzEXcEabMXlm1mH2K1L0BCTfPvd0KlCggtUHGERoIIQixeQgNxkEK1eRsyIGiikHsvKSWQqSoUQk/IlBgSmD0hgEgboTkJTIpUUgo6EBok5OxVQpE2QhtsYKySJk+oIPliCINfCwWskxZPYGx1E0+oCgkuXY2gKHJKsW8bUimi7JNBpTofsUbIwRMCssHStQ42gE45VeQQh4pC3ebf13HAEqpza8bp2oaCsGTCEnSQAFUSSgPhhltL32emksOB0zoQcAUttA0kQYc4WGPCBGmeUG4UtXqC4ALSoeJgc9V5S7giFCzB51KZrfpPBJsffSfTCONgBdnckLN6ADbYkGt9aliyiABC8LvDVfdcntSRongRqB2X6HND8xz85W1jINgcjSDUHKm4og6wMU0bXk+oOi+ZKyOFSl9BpcJ0tUj3TrIVCi2Jw8TidxVX8K58oiUjwDPVfkqbRQL0qZT688ts0HJm+xFt/gLDzYTH7PCopxrejaoAF1zDu7oJcE2yG0Jgj0crepyD+dfnV4+H+tuFyOvDYH8Zb1Q3/J+IvT/R7jzh+3SOcBdZwqPNedQnwm3qX2+Qt/H28Oe6+rQ/HC633ev//nprny5XY77/CQ==);lineShape=1;strokeColor=default;" vertex="1" parent="1">
          <mxGeometry x="-1590.8060508334283" y="-3968.301731010115" width="2091.8528692729874" height="2261.8363599903682" as="geometry" />
        </mxCell>
        <mxCell id="SC_foNXdeorjW9NxKM-1-13" value="" style="shape=stencil(lVfLctswDPwaXTEkIZLAOU3/IzNxak9dO+O4r78vVY1oEbQ245ssLyhgFy8O/PSxf3nfDcF9XC/n77vfh9frfuAvQwiH0353OVzL08DPAz+9nS+7b5fzz9Pr/Pv9ZUJOTz/Ov6YT/sx2qiRpsgru7/zGk5f/L77O+OPhtMZnStLgR3Ie4Mvf7flKPm7jRSiMrT+ZRvABcZRyYxAyiW4b5EAuNAasxGHbIDFFbUNWCoCjOJK6xiCWqEAMYyRtv5AScdo24GQNMlMGLgUh9o1B4S2OwMDR2NIqiSJgyVcHqtCeIgPhKLYeaSQGIYyUuMXLIuR9hyi3IkypDvzxS5qt8Aoy1ZNrJfDOkXPbBo5y6j4AAi4KdHiB+NAFkAFBrqtMXSTZwneEhgzx0eIdSLnef4GCFX6ixSfoT+7wEeCLwNLhgf99AsnSODbwSS0+A/49ac8POL/0Obb8e3B+uKMXwwLQbPGYT9sgSn5CfAwWr5Cf0OWnAn4cSec/xseOH4X1Ffp4Yf36zv8I8a6rd6SXs3Nvygfov+/qRWF/42TxuP88hme7GWiCemVyRt+RGNVjWNaAalAlv28gdgpLhAYhkbRfyLhkONoZULYXAT1orCHWTaIcgXaVwmrrUsyQpeSXply3IYFzPnd9nUufBjpnsSwVKQMwKJsJt5nqE2XAkgbybSrJsu3cx8fluBoCnHxlSTZLdZlVIIDbJnPDB7D+FXxgg/dAAhW7zDk4iadCHC0eVP402P1jeNMa666whY+WH4/8r4vPik+kV12sVnohPtWOPgczerUZ3gwE3ZrKB+yt7BNCH7vFfYovD7cr49vheJxvnOv/7RWzvJqvp/z8Dw==);lineShape=1;strokeColor=default;" vertex="1" parent="1">
          <mxGeometry x="-1502.1214713541276" y="-4808.130119450734" width="2490.4215829858254" height="3507.872518698034" as="geometry" />
        </mxCell>
        <mxCell id="SC_foNXdeorjW9NxKM-1-14" value="" style="shape=stencil(lVfLctswDPwaXTEk+ALPafofmYlTa+raGcd9/X2hamSboLRub7K8KxLYBUAO4elj//K+G9h9XM6nr7uf4+tlP4RPA/N43O/O40WfhvA8hKe303n35Xz6fnydf7+/TMjp6dvpx/SFXzOPqeaJxO73/MJTcH9ffJ7hh/F4Bw9UQwMv5HkbninG9uuRGHzee0q1IegnWAChUm73Hz1cITgK3BBSply2CZGJ2xiKo5i3CSmS+IYgGhWIIRdy0hCqIx+3CUXIu5aQSMI2QYRym9ZaYJaqUGp1rplcggTjo4kA0lorhY7AIGgl2BgyJUyo3hIqyJJ3jpyzaQpAuWmJZAlICCWU0hKEGOW1UhRLQGZSgvWGUKlQudxtSYC/bzv+1xU0J90KCXmjLH/fZwlJXSh2wkEdVNdOuIC3ZDrZAzMpwab1gV0L1c7fMGih0BFgyamu3BGw+bgL2uOiTt2WIq4HSZYAvaQVZ+pBOxleoSdkXEB2SwJn3BR0V6IRr8DBEgqKQexEeVyiVmlM0AERWrfeNcP1GZS7vF79uD7lEmWzJ6YE8pqC7WQSlu65PqkdcTtSCi99YZXAsozZ61lAYL/36rXW33o6yKiCloK8Hme0tfltfFjMf5UhLTGtb8ieHMoyJFfhKmkrgScB4XbjUM8xIJ0Kt0dJVDeqVmtqB9V1SyO5wSOEFzZw1Cb80ghvcNRKvZ03uFg8lWzhIDNM3mYGHQfV5BYeQKhsB5OjjIpkaRw3OJp7/3mfeAjXh9vV5W08HOabz/3/9qqjr+ZrUnj+Aw==);lineShape=1;strokeColor=default;" vertex="1" parent="1">
          <mxGeometry x="-1388.2532232090152" y="-3988.2469565798474" width="1891.5181102037434" height="1778.630678681027" as="geometry" />
        </mxCell>
        <mxCell id="SC_foNXdeorjW9NxKM-1-15" value="" style="shape=stencil(rZfbbtswDIafxrcERZ2ve3iPAk0XY1lSpGm3vf2kubYjKv6HAb1znI+USP0k5cHeve2fXneD8NvlfPq++zk+X/aDvR9ExuN+dx4v5WmwD4O9ezmdd9/Op/fj8/T79amS9enH6aN6+DXZ5UzeVivh39MbQzn8ffE48YfxeM0LpdDwgYLZ5pOf3S3+hWzcNoieuDUQIZO2DYKh1EZgPQnYkkvkpDFwmQSsUPxFFbMlBgbiyJnGoESFsmQ8mdag5g1kKRG3fLbzHm/viEIbQT13h3jrNB9BxEU0VvMZ+DfkYqsKZmJGBjrgsoDf5pl81nwC/pmkTxA4ANYqLbxgnls+wQQVPms+COKt1fznmw0+JM0bpFAt0BwpQ0H41PFQoNztn6FAXccLyI9QFM07VMKUouaRfgqv4s1kQP7LfroCczjeTm8RnJfMDeq6XmB9hb6AM9RDtx+kB+7yn+dBsqXnzn+A9a71meGY6esxE0P/n/9e6SHCepROn+4LeU9e5Wdp8bfPq5sAyc0Svy0gM/fXZYY58kBB1pJtUxoMbNFuGXHLHMY9yJcSaVcoayKRRtFdruQZBZ0shXYFw3AOZ9Z142HbKl1Q2jrgedJu8ep6xnPhbfEpKx7JunbNqHlwyHUKdTyQaa0qp/eP/JeqTYoXlJ+sZc2wja5dZ+UDaFtrV1t5eK/hrrEYOJfqAvr+7YCka9tXN6d5kmzx/3e//ydfHtaPiZfxcJi+Ra7/1x8f5dX04WIf/gA=);lineShape=1;strokeColor=default;" vertex="1" parent="1">
          <mxGeometry x="-766.67175753218" y="-5088.250137421355" width="1734.9217239958648" height="2458.564303994915" as="geometry" />
        </mxCell>
      </root>
    </mxGraphModel>
  </diagram>
</mxfile>
